# xmcd
#
# Track frame offsets:
#	150
#	14440
#	26475
#	41322
#	60825
#	75970
#	91995
#	109707
#	128067
#	143290
#
# Disc length: 2119 seconds
#
# Revision: 5
# Processed by: cddbd v1.5.1PL2 Copyright (c) Steve Scherf et al.
# Submitted via: dBpowerAMP V4.0
#
DISCID=6308450a
DTITLE=Reba McEntire - It's Your Call
DYEAR=1992
DGENRE=Country
TTITLE0=It's Your Call
TTITLE1=Straight From You
TTITLE2=Take It Back
TTITLE3=Baby's Gone Blues
TTITLE4=The Heart Won't Lie (Duet With Vince Gill)
TTITLE5=One Last Good Hand
TTITLE6=He Wants To Get Married
TTITLE7=For Herself
TTITLE8=Will He Ever Go Away
TTITLE9=Lighter Side Of Blue
EXTD=
EXTT0=
EXTT1=
EXTT2=
EXTT3=
EXTT4=
EXTT5=
EXTT6=
EXTT7=
EXTT8=
EXTT9=
PLAYORDER=
